<svg width="35" height="35" viewBox="0 0 35 35" fill="none" xmlns="http://www.w3.org/2000/svg">
<g clip-path="url(#clip0_1334_13)">
<path d="M31.111 5.83337H3.88878C3.37308 5.83337 2.8785 6.03823 2.51385 6.40289C2.1492 6.76754 1.94434 7.26212 1.94434 7.77782V27.2223C1.94434 27.738 2.1492 28.2325 2.51385 28.5972C2.8785 28.9618 3.37308 29.1667 3.88878 29.1667H31.111C31.6267 29.1667 32.1213 28.9618 32.4859 28.5972C32.8506 28.2325 33.0554 27.738 33.0554 27.2223V7.77782C33.0554 7.26212 32.8506 6.76754 32.4859 6.40289C32.1213 6.03823 31.6267 5.83337 31.111 5.83337ZM29.6138 27.2223H5.50267L12.3082 20.1834L10.9082 18.832L3.88878 26.0945V9.2556L15.9735 21.282C16.3378 21.6441 16.8306 21.8474 17.3443 21.8474C17.858 21.8474 18.3509 21.6441 18.7152 21.282L31.111 8.95421V25.9681L23.9554 18.8125L22.5846 20.1834L29.6138 27.2223ZM5.16239 7.77782H29.536L17.3443 19.9014L5.16239 7.77782Z" fill="black"/>
</g>
<defs>
<clipPath id="clip0_1334_13">
<rect width="35" height="35" fill="white"/>
</clipPath>
</defs>
</svg>
