<svg width="35" height="35" viewBox="0 0 35 35" fill="none" xmlns="http://www.w3.org/2000/svg">
<path d="M17.3582 8.72217C16.4929 8.72217 15.647 8.97876 14.9275 9.45949C14.2081 9.94022 13.6473 10.6235 13.3162 11.4229C12.985 12.2224 12.8984 13.102 13.0672 13.9507C13.236 14.7994 13.6527 15.5789 14.2646 16.1908C14.8764 16.8026 15.656 17.2193 16.5046 17.3881C17.3533 17.5569 18.233 17.4703 19.0324 17.1391C19.8318 16.808 20.5151 16.2473 20.9958 15.5278C21.4766 14.8083 21.7332 13.9625 21.7332 13.0972C21.7318 11.9373 21.2705 10.8252 20.4503 10.005C19.6301 9.18485 18.5181 8.72349 17.3582 8.72217ZM17.3582 15.2847C16.9255 15.2847 16.5026 15.1564 16.1428 14.916C15.7831 14.6756 15.5027 14.334 15.3372 13.9343C15.1716 13.5346 15.1283 13.0947 15.2127 12.6704C15.2971 12.2461 15.5054 11.8563 15.8114 11.5504C16.1173 11.2444 16.5071 11.0361 16.9314 10.9517C17.3557 10.8673 17.7956 10.9106 18.1953 11.0762C18.595 11.2417 18.9366 11.5221 19.177 11.8819C19.4174 12.2416 19.5457 12.6645 19.5457 13.0972C19.545 13.6771 19.3143 14.2331 18.9042 14.6432C18.4941 15.0533 17.9381 15.284 17.3582 15.2847Z" fill="black"/>
<path d="M25.7651 4.6836C23.6864 2.60551 20.9117 1.37103 17.9765 1.21844C15.0412 1.06584 12.1534 2.00594 9.87051 3.85729C7.5876 5.70865 6.0714 8.34001 5.61452 11.2435C5.15764 14.147 5.79247 17.1169 7.3965 19.5799L15.6616 32.2683C15.8456 32.5506 16.097 32.7826 16.3933 32.9431C16.6895 33.1037 17.0212 33.1878 17.3581 33.1878C17.6951 33.1878 18.0267 33.1037 18.323 32.9431C18.6192 32.7826 18.8707 32.5506 19.0546 32.2683L27.32 19.5799C28.8084 17.2951 29.4661 14.5682 29.183 11.8561C28.8999 9.14405 27.6932 6.61174 25.7651 4.6836ZM25.4872 18.3858L17.3582 30.8648L9.22907 18.3858C6.74079 14.566 7.27447 9.45406 10.498 6.23037C11.3989 5.32947 12.4684 4.61483 13.6455 4.12727C14.8225 3.6397 16.0841 3.38875 17.3582 3.38875C18.6322 3.38875 19.8938 3.6397 21.0709 4.12727C22.2479 4.61483 23.3174 5.32947 24.2183 6.23037C27.4419 9.45406 27.9755 14.566 25.4872 18.3858Z" fill="black"/>
</svg>
