<svg width="32" height="32" viewBox="0 0 32 32" fill="none" xmlns="http://www.w3.org/2000/svg">
<g clip-path="url(#clip0_1359_46)">
<path d="M7.30796 2.65598C7.1899 2.5041 7.04087 2.37908 6.87077 2.28923C6.70067 2.19938 6.5134 2.14674 6.3214 2.13482C6.1294 2.12291 5.93706 2.15198 5.75716 2.22011C5.57725 2.28824 5.41391 2.39387 5.27796 2.52998L3.20996 4.59998C2.24397 5.56798 1.88796 6.93798 2.30996 8.13998C4.06144 13.1152 6.91055 17.6322 10.646 21.356C14.3698 25.0913 18.8868 27.9404 23.862 29.692C25.064 30.114 26.434 29.758 27.402 28.792L29.47 26.724C29.6061 26.588 29.7117 26.4247 29.7798 26.2448C29.848 26.0649 29.877 25.8725 29.8651 25.6805C29.8532 25.4885 29.8006 25.3013 29.7107 25.1312C29.6209 24.9611 29.4958 24.812 29.344 24.694L24.73 21.106C24.5677 20.9801 24.379 20.8928 24.178 20.8505C23.9771 20.8082 23.7692 20.8122 23.57 20.862L19.19 21.956C18.6053 22.1021 17.9928 22.0943 17.4121 21.9335C16.8313 21.7726 16.3021 21.4641 15.876 21.038L10.964 16.124C10.5375 15.6981 10.2286 15.1689 10.0674 14.5882C9.90616 14.0074 9.89809 13.3948 10.044 12.81L11.14 8.42998C11.1898 8.23077 11.1937 8.02285 11.1514 7.82191C11.1092 7.62096 11.0218 7.43224 10.896 7.26998L7.30796 2.65598ZM3.76797 1.02198C4.11795 0.671879 4.53842 0.40024 5.00144 0.225102C5.46447 0.0499638 5.95945 -0.0246668 6.45353 0.00616572C6.94761 0.0369983 7.42947 0.172589 7.86713 0.403933C8.30478 0.635278 8.68822 0.957083 8.99196 1.34798L12.58 5.95998C13.238 6.80598 13.47 7.90798 13.21 8.94798L12.116 13.328C12.0594 13.5548 12.0625 13.7925 12.1248 14.0178C12.1872 14.2431 12.3068 14.4485 12.472 14.614L17.386 19.528C17.5516 19.6935 17.7574 19.8133 17.9831 19.8757C18.2088 19.938 18.4468 19.9409 18.674 19.884L23.052 18.79C23.5652 18.6617 24.1009 18.6517 24.6185 18.7608C25.1362 18.87 25.6222 19.0954 26.04 19.42L30.652 23.008C32.31 24.298 32.462 26.748 30.978 28.23L28.91 30.298C27.43 31.778 25.218 32.428 23.156 31.702C17.8783 29.845 13.0865 26.8237 9.13596 22.862C5.17454 18.912 2.15318 14.1209 0.295965 8.84398C-0.428035 6.78398 0.221965 4.56998 1.70197 3.08998L3.76996 1.02198H3.76797Z" fill="black"/>
</g>
<defs>
<clipPath id="clip0_1359_46">
<rect width="32" height="32" fill="white"/>
</clipPath>
</defs>
</svg>
